<svg id="visual" viewBox="0 0 900 600" width="900" height="600" xmlns="http://www.w3.org/2000/svg" xmlns:xlink="http://www.w3.org/1999/xlink" version="1.1"><path d="M0 175L82 175L82 289L164 289L164 277L245 277L245 151L327 151L327 127L409 127L409 133L491 133L491 139L573 139L573 169L655 169L655 139L736 139L736 175L818 175L818 241L900 241L900 139L900 0L900 0L818 0L818 0L736 0L736 0L655 0L655 0L573 0L573 0L491 0L491 0L409 0L409 0L327 0L327 0L245 0L245 0L164 0L164 0L82 0L82 0L0 0Z" fill="#fa7268"></path><path d="M0 337L82 337L82 433L164 433L164 403L245 403L245 307L327 307L327 373L409 373L409 295L491 295L491 319L573 319L573 277L655 277L655 349L736 349L736 301L818 301L818 337L900 337L900 307L900 137L900 239L818 239L818 173L736 173L736 137L655 137L655 167L573 167L573 137L491 137L491 131L409 131L409 125L327 125L327 149L245 149L245 275L164 275L164 287L82 287L82 173L0 173Z" fill="#ea5e66"></path><path d="M0 493L82 493L82 499L164 499L164 493L245 493L245 445L327 445L327 427L409 427L409 457L491 457L491 397L573 397L573 403L655 403L655 433L736 433L736 445L818 445L818 475L900 475L900 433L900 305L900 335L818 335L818 299L736 299L736 347L655 347L655 275L573 275L573 317L491 317L491 293L409 293L409 371L327 371L327 305L245 305L245 401L164 401L164 431L82 431L82 335L0 335Z" fill="#d84a64"></path><path d="M0 541L82 541L82 547L164 547L164 559L245 559L245 535L327 535L327 547L409 547L409 499L491 499L491 505L573 505L573 499L655 499L655 511L736 511L736 505L818 505L818 565L900 565L900 553L900 431L900 473L818 473L818 443L736 443L736 431L655 431L655 401L573 401L573 395L491 395L491 455L409 455L409 425L327 425L327 443L245 443L245 491L164 491L164 497L82 497L82 491L0 491Z" fill="#c53762"></path><path d="M0 601L82 601L82 601L164 601L164 601L245 601L245 601L327 601L327 601L409 601L409 601L491 601L491 601L573 601L573 601L655 601L655 601L736 601L736 601L818 601L818 601L900 601L900 601L900 551L900 563L818 563L818 503L736 503L736 509L655 509L655 497L573 497L573 503L491 503L491 497L409 497L409 545L327 545L327 533L245 533L245 557L164 557L164 545L82 545L82 539L0 539Z" fill="#b0235f"></path></svg>