<svg xmlns="http://www.w3.org/2000/svg" xmlns:xlink="http://www.w3.org/1999/xlink" id="visual" width="900" height="600" version="1.1" viewBox="0 0 900 600"><path fill="#001220" d="M0 151L13.7 147C27.3 143 54.7 135 82 135C109.3 135 136.7 143 163.8 158C191 173 218 195 245.2 195C272.3 195 299.7 173 327 177C354.3 181 381.7 211 409 240C436.3 269 463.7 297 491 279C518.3 261 545.7 197 573 167C600.3 137 627.7 141 654.8 150C682 159 709 173 736.2 176C763.3 179 790.7 171 818 155C845.3 139 872.7 115 886.3 103L900 91L900 0L886.3 0C872.7 0 845.3 0 818 0C790.7 0 763.3 0 736.2 0C709 0 682 0 654.8 0C627.7 0 600.3 0 573 0C545.7 0 518.3 0 491 0C463.7 0 436.3 0 409 0C381.7 0 354.3 0 327 0C299.7 0 272.3 0 245.2 0C218 0 191 0 163.8 0C136.7 0 109.3 0 82 0C54.7 0 27.3 0 13.7 0L0 0Z"/><path fill="#1a1f3f" d="M0 373L13.7 370C27.3 367 54.7 361 82 356C109.3 351 136.7 347 163.8 354C191 361 218 379 245.2 377C272.3 375 299.7 353 327 349C354.3 345 381.7 359 409 375C436.3 391 463.7 409 491 399C518.3 389 545.7 351 573 339C600.3 327 627.7 341 654.8 346C682 351 709 347 736.2 340C763.3 333 790.7 323 818 315C845.3 307 872.7 301 886.3 298L900 295L900 89L886.3 101C872.7 113 845.3 137 818 153C790.7 169 763.3 177 736.2 174C709 171 682 157 654.8 148C627.7 139 600.3 135 573 165C545.7 195 518.3 259 491 277C463.7 295 436.3 267 409 238C381.7 209 354.3 179 327 175C299.7 171 272.3 193 245.2 193C218 193 191 171 163.8 156C136.7 141 109.3 133 82 133C54.7 133 27.3 141 13.7 145L0 149Z"/><path fill="#4a2352" d="M0 457L13.7 458C27.3 459 54.7 461 82 451C109.3 441 136.7 419 163.8 415C191 411 218 425 245.2 430C272.3 435 299.7 431 327 427C354.3 423 381.7 419 409 427C436.3 435 463.7 455 491 452C518.3 449 545.7 423 573 415C600.3 407 627.7 417 654.8 425C682 433 709 439 736.2 433C763.3 427 790.7 409 818 398C845.3 387 872.7 383 886.3 381L900 379L900 293L886.3 296C872.7 299 845.3 305 818 313C790.7 321 763.3 331 736.2 338C709 345 682 349 654.8 344C627.7 339 600.3 325 573 337C545.7 349 518.3 387 491 397C463.7 407 436.3 389 409 373C381.7 357 354.3 343 327 347C299.7 351 272.3 373 245.2 375C218 377 191 359 163.8 352C136.7 345 109.3 349 82 354C54.7 359 27.3 365 13.7 368L0 371Z"/><path fill="#7e1d51" d="M0 529L13.7 526C27.3 523 54.7 517 82 517C109.3 517 136.7 523 163.8 532C191 541 218 553 245.2 552C272.3 551 299.7 537 327 529C354.3 521 381.7 519 409 524C436.3 529 463.7 541 491 543C518.3 545 545.7 537 573 528C600.3 519 627.7 509 654.8 514C682 519 709 539 736.2 543C763.3 547 790.7 535 818 529C845.3 523 872.7 523 886.3 523L900 523L900 377L886.3 379C872.7 381 845.3 385 818 396C790.7 407 763.3 425 736.2 431C709 437 682 431 654.8 423C627.7 415 600.3 405 573 413C545.7 421 518.3 447 491 450C463.7 453 436.3 433 409 425C381.7 417 354.3 421 327 425C299.7 429 272.3 433 245.2 428C218 423 191 409 163.8 413C136.7 417 109.3 439 82 449C54.7 459 27.3 457 13.7 456L0 455Z"/><path fill="#a7233a" d="M0 601L13.7 601C27.3 601 54.7 601 82 601C109.3 601 136.7 601 163.8 601C191 601 218 601 245.2 601C272.3 601 299.7 601 327 601C354.3 601 381.7 601 409 601C436.3 601 463.7 601 491 601C518.3 601 545.7 601 573 601C600.3 601 627.7 601 654.8 601C682 601 709 601 736.2 601C763.3 601 790.7 601 818 601C845.3 601 872.7 601 886.3 601L900 601L900 521L886.3 521C872.7 521 845.3 521 818 527C790.7 533 763.3 545 736.2 541C709 537 682 517 654.8 512C627.7 507 600.3 517 573 526C545.7 535 518.3 543 491 541C463.7 539 436.3 527 409 522C381.7 517 354.3 519 327 527C299.7 535 272.3 549 245.2 550C218 551 191 539 163.8 530C136.7 521 109.3 515 82 515C54.7 515 27.3 521 13.7 524L0 527Z"/></svg>